<?xml version="1.0" encoding="UTF-8" standalone="no"?>
<svg height="300" width="300" viewBox="0 0 300 330" version="1.1" id="svg104003" sodipodi:docname="logo.svg" inkscape:version="1.2 (1:1.2.1+202207142221+cd75a1ee6d)" xmlns:inkscape="http://www.inkscape.org/namespaces/inkscape" xmlns:sodipodi="http://sodipodi.sourceforge.net/DTD/sodipodi-0.dtd" xmlns="http://www.w3.org/2000/svg" xmlns:svg="http://www.w3.org/2000/svg">
  <defs id="defs104007" />
  <sodipodi:namedview id="namedview104005" pagecolor="#ffffff" bordercolor="#666666" borderopacity="1.0" inkscape:showpageshadow="2" inkscape:pageopacity="0.0" inkscape:pagecheckerboard="0" inkscape:deskcolor="#d1d1d1" showgrid="false" inkscape:zoom="2.3366667" inkscape:cx="112.98146" inkscape:cy="150" inkscape:window-width="1569" inkscape:window-height="879" inkscape:window-x="31" inkscape:window-y="21" inkscape:window-maximized="1" inkscape:current-layer="svg104003" />
  <rect style="fill:#0047bb;stroke:none;stroke-width:1.1;fill-opacity:1" id="rect104061" width="330" height="330" x="-15" y="0" />
  <path d="M124.1 280.1c0 5.6-2.4 7.3-6.1 7.3-3.8 0-6.1-1.8-6.1-7.3v-22.7h-9.2v21.1c0 5.9 1.2 10.1 3.8 12.5 2.5 2.4 6.3 3.6 11.5 3.6 5.1 0 9-1.2 11.5-3.6 2.5-2.4 3.8-6.6 3.8-12.5v-21.1h-9.1v22.7zM86 271.7H74v-14.3h-9.2V294H74v-14.7h12V294h9.1v-36.6H86v14.3zM29.6 265h10.2v29h9.1v-29h10.2v-7.6H29.6v7.6zm118.4-7.5L137.2 294h9.5l2.1-8.3h11l2.1 8.3h9.5l-10.8-36.6H148zm2.6 21l3.7-14.4 3.7 14.4h-7.4zM272 264.8v-7.3h-25.1v24.3c0 8.4 4.2 13 15.3 13 3.4 0 6.7-.3 9.8-.9v-7.2c-2.3.5-4.9.7-8 .7-5.3 0-8-1.5-8-5.3v-2.9h14.1v-7.3H256v-7.1h16zm-41.5 9.6l.4 5.2-12.7-22.1h-9.4V294h8.9v-17.7l-.4-4.4L230 294h9.3v-36.6h-8.8v17zm-35.4-1.3c-2.5-1.1-7-2.3-8.3-2.9-1.3-.6-2.2-1.7-2.2-2.8 0-2.1 2-3.2 6.1-3.2 3.2 0 6.1.5 8.4 1.4l1.9-6.7-1.3-.5c-.8-.4-2.2-.7-4-1a26 26 0 0 0-5.6-.5c-8.9 0-14.5 3.6-14.5 11.1 0 8.1 6.9 10.6 11 11.8 4.2 1.2 6.5 2.1 6.5 4.4 0 2.2-2 3.4-6 3.4-3.4 0-6.4-.6-9.2-1.8l-1.9 6.9 1.3.6a28.8 28.8 0 0 0 10.1 1.7c9.3 0 14.8-4.1 14.8-11.5 0-7.2-4.6-9.4-7.1-10.4m-29.5-170.4a24 24 0 0 0-10.9 20.1 24.1 24.1 0 0 0 16.2 23.1 20.2 20.2 0 0 0 25.2-9.6c3.5-6.6 1.9-10.8 3.5-13.6 1.2-2.3 3.6-3 4.3-3.2.8-.3 1-1.1.8-1.6 0 0-3.4-10.9-13.2-15.9a26.1 26.1 0 0 0-25.9.7m22.7 2.7c6.4 3 9.1 7.5 11 11.1 0 0-3.2 1.9-4.4 5.7-1.1 3.6 0 4.1-1.8 9.7s-7.8 11.5-15.8 10.7a19.7 19.7 0 0 1-9.7-35.8c6-4.2 14.3-4.3 20.7-1.4m30.3 47.4c-4.1-2.5-9-1.1-12.5.1a47.4 47.4 0 0 1-12.5 2.6c-8.9.6-13.2-1.9-14.3-2.2-.7-.2-1.6 0-1.8 1.2-1.8 13.5-6.7 21.8-6.7 21.8a51.7 51.7 0 0 1-18.1-4.9c-7.5-3.5-13.2-11.2-13.8-11.9-.6-.7-1.5-.7-2.2.2-6.2 7.6-7.7 14.7-7.7 14.7a20.6 20.6 0 0 1-14.9 6.8c-5.3.2-8.2-1.6-10.4-2.1-2.3-.5-12.4-2.7-17.3 14.5-1.2 4.1-1.5 8.4 1.6 9.7 3.2 1.4 5.9-1 11-1 7.2 0 10 4.3 20.2 4.3a62 62 0 0 0 16.3-2.9c-11.3-8.1-12.5-19.8-12.5-19.8 3.5-1.4 5.2-2.8 5.2-2.8.3 3.4.8 6.9 4.3 12a26.4 26.4 0 0 0 11.8 9.2c1.8 1.6 4.5 6 8.3 13.7 3.8 7.6 6 12.9 7.2 15.4 1.2 2.5 1.8 4 4 5.6 2.2 1.5 4.9 2.8 10.7 1.2a43.3 43.3 0 0 0 14.4-8.2c2.1-1.9 4-4.1 3.5-7-.4-2.9-3.5-4.5-6-5.6-2.5-1-6.2-3.2-9-7.6-2.8-4.4-2.7-6.3-4.9-11.5s-5-9.6-5-9.6c10.9-10.9 13.9-29.7 13.9-29.7 2.7.8 5.4 1 5.4 1-1.9 10.1-5 16.7-5 16.7 8.7.8 17 0 22.2-1.3 5.3-1.2 12.5-4 16.2-9.1 3.7-5.1 2.5-10.9-1.6-13.5m-111.1 46.6c-2.1-.8-4.7-1.7-7.3-1.8-2.6-.1-4.9.4-7.3 1l-2.7.6c0-.4-.2-2 .9-5.2s2.1-6.2 4.5-8.6a7.9 7.9 0 0 1 8.6-1.5c2.8 1.1 4.5 1.3 4.5 1.3s.2 3.3 1.8 7.9c1.6 4.6 3.9 8.4 3.9 8.4-1.8-.2-4.8-1.3-6.9-2.1m18.9 1.9s-3.2.7-6.3.7c0 0-2.3-3-4.1-7.2a35 35 0 0 1-2.7-9.1s2.9.1 5.4-.6a33.2 33.2 0 0 0 7.7 16.2m44.5 5.4c1.6 4.2 4 7.6 6.9 10.4 2.9 2.8 6.2 4.2 7.5 4.7 1.3.5 2.1 1.1 2.4 1.3.3.3.5.4.3 1-.6 1.6-3.5 3.8-6.4 5.6a30.3 30.3 0 0 1-8.1 3.9c-2.8.9-7.1 1.2-8.9-3-10.7-24.9-16-30.6-16.7-31.3-.7-.7-1-1-2.1-1.5s-6.6-2.4-10.6-9.2c-4-6.8-1.8-13.5-1.8-13.5s4.6 5.1 13 9.3a66 66 0 0 0 16.5 5.4c6 9.7 6.4 12.7 8 16.9m-6.6-21.2c-3.6-.8-9-1.7-16.5-5.4s-12.6-9.6-12.6-9.6c1.2-2.5 2.9-5 2.9-5s4.4 5.8 12.1 9.7c9 4.6 18.1 5.4 18.1 5.4-1.8 2.9-4 4.9-4 4.9m29.7-13.3c-3 .2-5.7.1-5.7.1 2.1-5.9 3.1-12.2 3.1-12.2 3.1 0 5.6-.4 5.6-.4-1.3 8-3 12.5-3 12.5m18.7-5.1c-5.9 3.9-13.8 4.6-13.8 4.6 2-6.7 2.8-12.8 2.8-12.8 4.4-1 7.2-2.3 9.5-2.7 3.9-.7 5.2.5 6.1 1.6 1 1.2 1.7 5.1-4.6 9.3m-69.9-93.8c4.7-4.2 9.1-4.6 11.4-4.9 0 0 2.7-18.9 27.3-20.8 0 0-2.1 4.3-3 8.4-.9 4.1-.8 8.3 0 14 .8 5.6 2.4 12.9-2.3 23.5 0 0 2.3-.2 4.8 0 0 0 3.1-6.6 2.9-14.8-.2-8.2-1.6-11.1-1.6-16.9 0-5.8 3.1-12.6 5.6-16.5.7-1 .5-2.2-1.3-2.3-1.8-.1-13.3-.8-24 5.8a30 30 0 0 0-12 15.5s-13.9 2.5-16.8 16.1l4.1 3.5c-.1 0 .2-6.5 4.9-10.6m-44.3 45s-1.9 7.2 3 14.2l3.6-2.8s-4.4-5.2-1.3-13.6c0 0-14.6-6-7.9-22.8 0 0-8.2-6.7-7.8-17.3.2-6 2.5-11.5 5.3-16.4 0 0 5.5 7.9 14 14.2 8.5 6.3 15.5 9.3 22.9 16 8 7.3 17.2 18.3 13.9 39.1 0 0-11.8-3.7-22.9-.6a36.2 36.2 0 0 0-21.2 14c-2.3 3-4.6 8.7-3.9 13a8.8 8.8 0 0 0 7.4 7.6c7.4 1.4 11.3-5.4 15.1-8.8 3.8-3.4 7.1-4.7 11.2-4.8 4.3-.1 8.2 2.4 9.4 3.2.8.5 1.6.3 2.1-.5l.8-1.6c.3-.6.3-1.2-.6-1.8 0 0-5.5-3.8-11.8-3.8-6.4 0-11.4 3.1-14.7 6.4-3.5 3.5-5.2 7.1-9.7 7.3-3.2.1-4.9-2.3-4.9-5s2-7.9 6.3-12.2a35.2 35.2 0 0 1 19.9-9.5 40.6 40.6 0 0 1 20.3 3s2.3-4.7 2.3-13.8c.1-9-2.9-18.5-7.7-25.3a78.7 78.7 0 0 0-23.9-20.3 71.4 71.4 0 0 1-23.3-21.9c-.8-1.1-1.8-.8-2.4 0-.7.8-5.2 6.8-7.4 15a27.1 27.1 0 0 0 6 25.9c.1 0-5.1 14.8 7.9 23.9" fill="#fff" id="path104001" />
</svg>
