<?xml version="1.0" encoding="UTF-8"?>
<svg version="1.1" xmlns="http://www.w3.org/2000/svg" width="1803" height="2048">
<path d="M0 0 C3.82674141 0.58516936 6.71385284 1.10305568 9.99609375 3.1875 C10.71216797 3.63464355 11.42824219 4.08178711 12.16601562 4.54248047 C12.91560547 5.02346191 13.66519531 5.50444336 14.4375 6 C16.04006647 7.00308061 17.64293588 8.00567736 19.24609375 9.0078125 C20.0438623 9.51086914 20.84163086 10.01392578 21.66357422 10.53222656 C25.08718256 12.6829824 28.53673778 14.78881597 32 16.875 C32.93223389 17.43695068 32.93223389 17.43695068 33.88330078 18.01025391 C37.13252563 19.94895515 40.39820912 21.74637743 43.8125 23.375 C51.14712392 26.90149698 57.95382838 31.42158109 64.87011719 35.69140625 C71.09796186 39.51777574 77.35627087 43.24692012 83.9375 46.4375 C90.22833791 49.50718656 96.07529408 53.28600525 102 57 C108.01504271 60.75461265 114.1546514 64.15782566 120.4375 67.4375 C126.15885258 70.42837612 131.6590969 73.57532266 137.0625 77.1171875 C146.25884647 83.01165425 155.7948997 88.4096039 165.41015625 93.5859375 C171.64145453 96.98824516 177.74062773 100.62688511 183.8125 104.3046875 C184.46637695 104.70002686 185.12025391 105.09536621 185.79394531 105.50268555 C187.05549982 106.26682983 188.31539772 107.03371904 189.57324219 107.80395508 C192.58540647 109.62994587 195.60585436 111.32871638 198.7734375 112.87109375 C203.97170547 115.42314198 208.90546964 118.40832025 213.875 121.375 C214.80441406 121.92671875 215.73382813 122.4784375 216.69140625 123.046875 C220.38601593 125.24199874 224.07758424 127.44143101 227.75366211 129.66748047 C228.62514893 130.19486816 229.49663574 130.72225586 230.39453125 131.265625 C231.55239136 131.96993652 231.55239136 131.96993652 232.73364258 132.68847656 C235.04907276 134.02839802 237.40178775 135.2166058 239.8125 136.375 C247.28022131 140.02718245 254.21505161 144.59889473 261.2265625 149.046875 C266.64571169 152.44867668 272.05116676 155.58578311 277.8125 158.375 C283.73107195 161.2590776 289.21995258 164.55657372 294.76367188 168.09936523 C299.68739429 171.22724572 304.69896276 174.1316503 309.8125 176.9375 C316.26534887 180.48077721 322.68480814 184.07281192 329.0625 187.75 C330.20392456 188.40343384 330.20392456 188.40343384 331.3684082 189.07006836 C335.24306142 191.31101061 339.0076163 193.64676589 342.71484375 196.15625 C345.885892 198.29659602 349.02228811 200.13684449 352.5 201.75 C364.47692683 207.58608521 375.77910615 214.70373788 386.8515625 222.08984375 C389.53945778 223.72058915 392.14630854 224.91871108 395.04638672 226.1027832 C398.28606872 227.59064016 401.26795366 229.48949522 404.3046875 231.34960938 C408.99419577 234.22108364 413.75166181 236.97727034 418.5 239.75 C419.5422876 240.35908203 420.5845752 240.96816406 421.65844727 241.59570312 C428.72487927 245.71125198 435.83082585 249.74382774 443.02734375 253.62792969 C446.56776958 255.55891389 449.94066677 257.60422748 453.26953125 259.8828125 C458.54831328 263.45669901 464.1198005 266.3977391 469.75 269.375 C477.33688668 273.43287491 484.78096858 277.56707214 492.0546875 282.1640625 C498.25190029 286.0270466 504.6363103 289.59438292 511.03051758 293.11938477 C517.14782148 296.4924521 523.17529178 300.00592482 529.1875 303.5625 C530.14591797 304.12646484 531.10433594 304.69042969 532.09179688 305.27148438 C533.02443359 305.82255859 533.95707031 306.37363281 534.91796875 306.94140625 C535.75094482 307.43326416 536.5839209 307.92512207 537.44213867 308.43188477 C540.34358134 310.21063501 543.16829899 312.11219933 546 314 C551.28 316.64 556.56 319.28 562 322 C562 535.84 562 749.68 562 970 C557.4122788 969.08245576 554.37941572 967.89097258 550.25 965.8125 C549.10015625 965.24144531 547.9503125 964.67039062 546.765625 964.08203125 C543.97399074 962.60532945 541.38675206 960.94360777 538.78125 959.16015625 C533.48665304 955.56691226 527.90122553 952.61356441 522.25 949.625 C514.71422412 945.59243396 507.3125943 941.49178619 500.08203125 936.93359375 C488.31110083 929.54878949 476.15781715 922.79364659 463.99316406 916.08544922 C458.00249742 912.76188649 452.19486005 909.25269249 446.43896484 905.53833008 C443.44449907 903.64962849 440.40887769 902.03620029 437.25 900.4375 C430.55552251 896.97343536 424.15970674 893.08711383 417.75 889.125 C409.7709297 884.1977536 401.70743487 879.62208621 393.36694336 875.33862305 C388.30900611 872.72966667 383.51778198 869.88967649 378.76171875 866.7578125 C375.44851703 864.64898538 372.05441703 862.7245729 368.625 860.8125 C367.63258301 860.25876709 367.63258301 860.25876709 366.62011719 859.69384766 C365.19623296 858.8998738 363.77223709 858.10610014 362.34814453 857.3125 C357.90895504 854.83120631 353.48422358 852.32475422 349.0625 849.8125 C348.19898926 849.32563721 347.33547852 848.83877441 346.44580078 848.3371582 C342.31507312 845.98702632 338.29146523 843.56548008 334.359375 840.89453125 C330.43442851 838.23586314 326.41374797 836.01117436 322.1875 833.875 C310.74010709 827.95380073 299.71257195 821.27555073 288.84375 814.35546875 C285.35971775 812.1704128 281.77573793 810.33617722 278.0625 808.5625 C273.24704573 806.21534863 268.77987291 803.64831566 264.3828125 800.58984375 C257.48677042 795.98871403 250.08709954 792.06990214 242.73730469 788.24975586 C235.83034531 784.65292772 229.21770491 780.70810243 222.625 776.5625 C215.6372811 772.16865951 208.59797738 768.09091256 201.25805664 764.31933594 C193.57877782 760.33782557 186.27107534 755.7697436 178.93115234 751.20117188 C176.42134961 749.64008092 173.90228218 748.09512441 171.375 746.5625 C170.70210937 746.15128906 170.02921875 745.74007812 169.3359375 745.31640625 C167.41716831 744.23509318 165.44648293 743.24641548 163.46484375 742.28515625 C157.83479988 739.49691295 152.54307162 736.15035918 147.1875 732.875 C138.63832142 727.68577433 130.02122571 722.78665449 121.12646484 718.21850586 C116.6730579 715.91995759 112.49356684 713.48205142 108.3984375 710.58203125 C102.49851672 706.69038969 96.18413969 703.41455566 90 700 C90 699.34 90 698.68 90 698 C89.3296875 697.91878906 88.659375 697.83757813 87.96875 697.75390625 C84.10692245 696.77320531 80.91622973 694.92143886 77.5 692.9375 C76.86835937 692.57978516 76.23671875 692.22207031 75.5859375 691.85351562 C71.26527407 689.38395996 67.03409993 686.78495057 62.80859375 684.15625 C56.18124882 680.06176139 49.4013419 676.29304486 42.5625 672.5625 C35.30327684 668.58100697 28.07753344 664.60188712 21.1875 660 C15.5517266 656.24281773 9.76355238 653.23513277 3.66796875 650.3125 C1 649 1 649 0 648 C-0.09702552 646.57630386 -0.12447382 645.14780499 -0.1241985 643.72080654 C-0.12644579 642.7897049 -0.12869308 641.85860326 -0.13100848 640.89928642 C-0.12838146 639.86229759 -0.12575445 638.82530876 -0.12304783 637.75689602 C-0.12420167 636.66167603 -0.12535552 635.56645603 -0.12654433 634.43804756 C-0.12921965 630.71840347 -0.12468135 626.9988015 -0.12025452 623.27915955 C-0.12069003 620.60542472 -0.12152219 617.93169273 -0.12284368 615.25795847 C-0.12492328 609.41914439 -0.12326371 603.58034046 -0.11920547 597.74152756 C-0.11318766 589.05933207 -0.11286806 580.37714302 -0.11374746 571.69494583 C-0.11506357 557.09239925 -0.11171161 542.48985719 -0.10573006 527.88731194 C-0.09981983 513.42193517 -0.09596549 498.95656029 -0.09487724 484.49118233 C-0.0948085 483.59289835 -0.09473976 482.69461438 -0.09466894 481.76910968 C-0.09433062 477.20746954 -0.09402923 472.64582939 -0.09374207 468.08418924 C-0.09163977 435.74582215 -0.08489718 403.40745751 -0.07543945 371.0690918 C-0.06626006 339.64624037 -0.05917398 308.22338961 -0.05493164 276.80053711 C-0.05480011 275.8325204 -0.05466859 274.8645037 -0.05453308 273.86715316 C-0.05321459 264.14622963 -0.05193877 254.4253061 -0.05069422 244.70438256 C-0.04815777 224.90046094 -0.04533652 205.09653936 -0.04234314 185.2926178 C-0.04220585 184.38199827 -0.04206856 183.47137873 -0.04192711 182.53316467 C-0.03272122 121.68877542 -0.01687542 60.84438754 0 0 Z " fill="#613BE4" transform="translate(0,0)"/>
<path d="M0 0 C0.10279819 61.81717565 0.19820037 123.63436117 0.25405884 185.45159912 C0.25488718 186.36596656 0.25571552 187.28033399 0.25656897 188.22240954 C0.27452484 208.09228267 0.29114616 227.96215671 0.30639198 247.8320321 C0.31387624 257.57568436 0.32165553 267.31933638 0.32958984 277.06298828 C0.3303744 278.03261815 0.33115895 279.00224802 0.33196728 280.00126062 C0.3575525 311.45101037 0.40263309 342.9006956 0.45778332 374.35040623 C0.51433695 406.65895624 0.5513029 438.96747052 0.56348994 471.27606919 C0.56521896 475.83550242 0.56717279 480.39493552 0.56926346 484.95436859 C0.569668 485.85176356 0.57007253 486.74915853 0.57048933 487.67374729 C0.57759001 502.14121258 0.60544616 516.60856765 0.6409922 531.07598792 C0.67625516 545.60741107 0.68982313 560.13872453 0.68100826 574.67018899 C0.67643174 583.31224886 0.68872637 591.95390846 0.72478526 600.59589633 C0.74720695 606.36153309 0.74803739 612.12690634 0.73099088 617.89256096 C0.72189127 621.18262484 0.72575827 624.47177111 0.74929909 627.76178589 C0.77315223 631.29924865 0.76054298 634.83470753 0.73828697 638.37213516 C0.75404905 639.4028473 0.76981114 640.43355944 0.78605086 641.49550527 C0.74814816 644.13580215 0.66985924 646.44600792 0 649 C-2.92070043 651.59591269 -2.92070043 651.59591269 -6 653 C-6.66233643 653.36077637 -7.32467285 653.72155273 -8.00708008 654.09326172 C-8.58868896 654.36928223 -9.17029785 654.64530273 -9.76953125 654.9296875 C-10.42550293 655.24663574 -11.08147461 655.56358398 -11.75732422 655.89013672 C-12.43553223 656.2151416 -13.11374023 656.54014648 -13.8125 656.875 C-18.95989231 659.39354138 -23.7428778 662.02553535 -28.4375 665.32421875 C-31.97866431 667.64001065 -35.66758388 669.6516243 -39.375 671.6875 C-51.42812814 678.31300465 -63.39428399 685.08921254 -75.0625 692.375 C-79.41105744 695.08393742 -83.79577241 697.43724741 -88.40625 699.66015625 C-92.69043446 701.87322141 -96.73755797 704.46086174 -100.82421875 707.015625 C-104.4361361 709.27251801 -108.08693362 711.45766833 -111.74609375 713.63671875 C-113.81523322 714.88824331 -115.84473879 716.18679203 -117.875 717.5 C-121.01074177 719.47783313 -124.22844772 721.12971291 -127.5625 722.75 C-136.15509396 726.97054363 -144.2558744 732.01418669 -152.3515625 737.109375 C-158.96359317 741.25999279 -165.65687028 744.87044993 -172.671875 748.29296875 C-176.65473818 750.33582228 -180.3345347 752.69290046 -184.07421875 755.14453125 C-187.37979602 757.24085862 -190.76692274 759.16304015 -194.1875 761.0625 C-201.23418943 764.98328596 -208.22075566 769.00134791 -215.1875 773.0625 C-216.22342285 773.66626465 -217.2593457 774.2700293 -218.32666016 774.89208984 C-224.72841716 778.63659095 -231.06843401 782.45228899 -237.31640625 786.44921875 C-240 788 -240 788 -243.4765625 789.48828125 C-246.82877406 790.9265361 -249.73330229 792.55437574 -252.8125 794.5 C-253.94514764 795.20729533 -255.07797039 795.91431028 -256.2109375 796.62109375 C-257.4740195 797.41396507 -258.7370366 798.20693978 -260 799 C-269.37048237 804.87323068 -278.65588832 810.59631254 -288.69140625 815.26953125 C-291.37654377 816.6739184 -293.74526616 818.13527818 -296.23828125 819.8359375 C-301.18315456 823.19574895 -306.35169244 826.006473 -311.625 828.8125 C-322.13588599 834.47860657 -332.35246339 840.49567881 -342.49609375 846.7890625 C-349.80931191 851.31363912 -357.0413504 855.62426816 -364.8046875 859.34375 C-372.10838168 863.12952791 -379.01792406 867.65755122 -386 872 C-387.89258099 873.17193529 -389.78769424 874.33981328 -391.6875 875.5 C-392.37199219 875.9228125 -393.05648438 876.345625 -393.76171875 876.78125 C-396 878 -396 878 -399.39453125 879.4296875 C-402.83311353 880.92731488 -405.83496954 882.62212916 -409 884.625 C-410.14284648 885.33915443 -411.2860913 886.05267172 -412.4296875 886.765625 C-413.31092285 887.31766602 -413.31092285 887.31766602 -414.20996094 887.88085938 C-423.7321251 893.83416004 -433.39752599 899.31603326 -443.37133789 904.47998047 C-447.97153442 906.87865772 -452.29810962 909.4055476 -456.54296875 912.39453125 C-460.04838029 914.68503068 -463.70645515 916.67166254 -467.375 918.6875 C-473.97266436 922.3156619 -480.53955684 925.98885466 -487.0625 929.75 C-487.82288574 930.18530029 -488.58327148 930.62060059 -489.36669922 931.0690918 C-493.24828367 933.31402218 -497.02186539 935.65390574 -500.73828125 938.1640625 C-503.78472852 940.22080269 -506.79299707 942.0550054 -510.125 943.625 C-517.64013309 947.19279046 -524.69250507 951.58896818 -531.8125 955.875 C-534.35637945 957.40406513 -536.90021798 958.93308714 -539.44775391 960.45605469 C-541.15876972 961.49110959 -542.8590238 962.54415265 -544.54833984 963.61425781 C-545.38187988 964.13600586 -546.21541992 964.65775391 -547.07421875 965.1953125 C-547.80600342 965.66211426 -548.53778809 966.12891602 -549.29174805 966.60986328 C-551.74947628 967.87140701 -554.05106269 968.73256518 -556.66926575 969.58688354 C-557.4801405 969.85277723 -558.29101526 970.11867092 -559.12646198 970.39262199 C-559.74472953 970.59305674 -560.36299707 970.79349148 -561 971 C-561.22277278 909.33470802 -561.42947162 847.66936956 -561.55046082 786.00378418 C-561.55225556 785.09137871 -561.5540503 784.17897324 -561.55589943 783.23891912 C-561.59480559 763.41075488 -561.63081818 743.58258637 -561.66384928 723.75441149 C-561.68006492 714.03093484 -561.69692008 704.30745935 -561.71411133 694.58398438 C-561.7158112 693.61637238 -561.71751106 692.64876039 -561.71926244 691.65182682 C-561.77467803 660.27840979 -561.87233815 628.90529678 -561.99186387 597.532064 C-562.1144508 565.29683858 -562.19450209 533.06178145 -562.22089487 500.82632687 C-562.22464098 496.27520361 -562.22887426 491.72408092 -562.23340416 487.17295837 C-562.23428066 486.27721625 -562.23515716 485.38147412 -562.23606022 484.45858829 C-562.25143355 470.02891407 -562.31175694 455.59975965 -562.38881644 441.17029756 C-562.46529717 426.67008663 -562.49459763 412.17039193 -562.47551791 397.66998631 C-562.46561614 389.05040055 -562.49210744 380.43270143 -562.57036806 371.81345576 C-562.61906593 366.05778168 -562.62066833 360.30334488 -562.58381358 354.54758584 C-562.56415143 351.26547682 -562.57227896 347.98766491 -562.62348137 344.70579201 C-562.90198852 325.75802127 -562.90198852 325.75802127 -559.7624862 321.20551527 C-556.33942798 317.94584933 -552.46869151 316.47260424 -548 315 C-543.29002974 313.10704281 -538.98640483 310.90175249 -534.6875 308.1875 C-533.54976645 307.4748016 -532.41174272 306.76256624 -531.2734375 306.05078125 C-529.65308594 305.03564453 -529.65308594 305.03564453 -528 304 C-525.46911295 302.46469244 -522.92970969 300.94483508 -520.38671875 299.4296875 C-518.77868702 298.46644754 -517.17719002 297.49222389 -515.58203125 296.5078125 C-511.12475467 293.77250446 -506.64140274 291.2893519 -501.9375 289 C-497.58579577 286.86270729 -493.64545928 284.51640823 -489.6640625 281.765625 C-481.5464374 276.3856154 -473.04765829 271.36544102 -464.25 267.1875 C-457.54197572 263.94850885 -451.35391694 259.91607183 -445.05834961 255.9543457 C-439.57937002 252.53016614 -434.05896261 249.32687567 -428.3125 246.375 C-419.9230185 242.06456977 -411.93549197 237.18329495 -403.93115234 232.20117188 C-401.42134961 230.64008092 -398.90228218 229.09512441 -396.375 227.5625 C-395.70210937 227.15128906 -395.02921875 226.74007812 -394.3359375 226.31640625 C-392.43999487 225.24795697 -390.49345367 224.26965623 -388.53515625 223.3203125 C-383.12388928 220.64042901 -377.99770285 217.4856408 -372.8270874 214.37371826 C-363.77916045 208.93231859 -354.69230595 203.65156258 -345.30688477 198.80761719 C-341.16642344 196.65843374 -337.3121469 194.32818236 -333.4921875 191.66015625 C-324.55004046 185.70339686 -315.03664774 180.49892284 -305.58203125 175.41015625 C-299.24584395 171.94969692 -293.06006415 168.21941082 -286.84765625 164.54296875 C-274.12376915 157.02159895 -274.12376915 157.02159895 -268.5 154 C-259.00395944 148.89678431 -249.76246833 143.30325354 -240.5625 137.6875 C-237.49949919 135.83629244 -234.40860986 134.1840995 -231.1875 132.625 C-224.85379676 129.53272103 -218.9658242 125.7397704 -213 122 C-207.04643109 118.28375953 -200.97416837 114.92203135 -194.75 111.6875 C-188.99974845 108.69164384 -183.55222596 105.4845769 -178.15991211 101.87231445 C-170.26129654 96.70568288 -161.86297599 92.33633462 -153.56738281 87.84741211 C-147.02988811 84.29866058 -140.64939334 80.60097961 -134.40551758 76.54931641 C-131.22437787 74.50044676 -127.97843443 72.61751988 -124.6875 70.75 C-122.99173828 69.78320312 -122.99173828 69.78320312 -121.26171875 68.796875 C-119.22578959 67.67528528 -117.16941956 66.58916329 -115.0859375 65.55859375 C-111.2714154 63.63201866 -107.61295637 61.48999203 -103.9375 59.3125 C-103.19089111 58.87260742 -102.44428223 58.43271484 -101.67504883 57.97949219 C-97.13868197 55.29752345 -92.65257412 52.54876023 -88.1875 49.75 C-72.4527439 40 -72.4527439 40 -68 40 C-68 39.34 -68 38.68 -68 38 C-67.41323486 37.6690332 -66.82646973 37.33806641 -66.22192383 36.99707031 C-59.14461512 33.00393195 -52.07113568 29.00405895 -45 25 C-44.02949707 24.45069824 -43.05899414 23.90139648 -42.05908203 23.33544922 C-32.52469406 17.93345917 -23.04836872 12.48567115 -13.74609375 6.69140625 C-2.88221709 0 -2.88221709 0 0 0 Z " fill="#3B29A8" transform="translate(1803,360)"/>
<path d="M0 0 C4.16354301 0.8327086 6.21924716 1.45285708 9.75 3.4375 C10.70519531 3.97375 11.66039062 4.51 12.64453125 5.0625 C18.78212309 8.60644127 24.88953352 12.20059053 30.98876953 15.81005859 C33.78103564 17.46209853 36.57641031 19.10869447 39.375 20.75 C40.20773437 21.23984375 41.04046875 21.7296875 41.8984375 22.234375 C44.62723424 23.78779581 47.3752884 25.290929 50.13671875 26.78515625 C55.97855133 29.96237974 61.71634515 33.29878577 67.4375 36.6875 C68.88672852 37.53924805 68.88672852 37.53924805 70.36523438 38.40820312 C71.76032227 39.23288086 71.76032227 39.23288086 73.18359375 40.07421875 C74.01431396 40.56494873 74.84503418 41.05567871 75.70092773 41.5612793 C78 43 78 43 80.10571289 44.60083008 C82.25788832 46.19048305 84.51106495 47.06096167 86.97460938 48.0703125 C89.27354144 49.12556001 91.37266825 50.36846574 93.53125 51.6875 C99.11557693 55.07350199 104.73708176 58.39158585 110.375 61.6875 C111.41213135 62.29400391 112.4492627 62.90050781 113.51782227 63.52539062 C121.04586176 67.90826753 128.63466997 72.16351393 136.31591797 76.2722168 C140.14647998 78.34048997 143.81611299 80.50361384 147.4140625 82.95703125 C152.23808428 86.23299532 157.29020393 88.95790109 162.4375 91.6875 C169.45940282 95.45987392 176.36043092 99.34564548 183.125 103.5625 C189.21048138 107.35476419 195.37842895 110.90534126 201.6875 114.3125 C209.13032605 118.33321166 216.36719334 122.61479732 223.5625 127.0625 C231.43711194 131.92780276 239.40178739 136.43374878 247.63427734 140.66210938 C252.69188511 143.27066743 257.48262319 146.11059031 262.23828125 149.2421875 C265.55148297 151.35101462 268.94558297 153.2754271 272.375 155.1875 C273.03661133 155.55665527 273.69822266 155.92581055 274.37988281 156.30615234 C275.80376704 157.1001262 277.22776291 157.89389986 278.65185547 158.6875 C283.09104496 161.16879369 287.51577642 163.67524578 291.9375 166.1875 C292.80101074 166.67436279 293.66452148 167.16122559 294.55419922 167.6628418 C298.68492688 170.01297368 302.70853477 172.43451992 306.640625 175.10546875 C310.56554262 177.7641173 314.58616257 179.98904221 318.8125 182.125 C326.3820245 186.03637726 333.6872406 190.31468004 340.96020508 194.75048828 C346.23884445 197.96752242 351.58197603 201.0245384 357 204 C364.41545551 208.1694793 371.76120157 212.44444873 379.07177734 216.79492188 C386.16247395 221.01381991 393.22952832 225.21421641 400.5625 229 C407.64031832 232.69107835 414.34025109 236.90048233 421.09521484 241.14794922 C427.18320008 244.94839466 433.36203855 248.40476077 439.74414062 251.68066406 C445.90694902 254.87326803 451.78695315 258.46256941 457.68334961 262.11889648 C462.4869652 265.09296384 467.33953331 267.89996696 472.32421875 270.5625 C480.17963318 274.78263505 487.86159861 279.27430527 495.43554688 283.97705078 C503.30651547 288.86312691 511.28994771 293.3363319 519.52392578 297.58154297 C524.06255994 299.93522303 528.32281603 302.41506235 532.5 305.37109375 C536.96396035 308.27964292 541.67798526 310.76476346 546.35571289 313.31054688 C547.0955542 313.71466797 547.83539551 314.11878906 548.59765625 314.53515625 C549.25258057 314.889729 549.90750488 315.24430176 550.58227539 315.60961914 C551.38012451 316.06844482 552.17797363 316.52727051 553 317 C553.64399458 317.2811985 554.28798915 317.56239699 554.95149872 317.85211666 C558.18933945 319.46313751 560.55141074 320.66452541 561.74177033 324.20829055 C562.02310673 327.07698 562.04339264 329.85309476 561.98438263 332.7352953 C561.99361338 333.83513067 562.00284414 334.93496603 562.01235461 336.06812975 C562.03365306 339.78033122 561.99754769 343.48979665 561.96203613 347.20185852 C561.96552258 349.87911649 561.97218459 352.5561945 561.98274946 355.23341626 C561.99934942 361.06761825 561.98617405 366.90116806 561.9536438 372.73529434 C561.90540734 381.41031172 561.90295309 390.08491699 561.90997971 398.76004403 C561.92049713 413.35202339 561.89373648 427.94371321 561.84584045 442.53560829 C561.79852857 456.98652897 561.76771786 471.43732909 561.75901794 485.88832664 C561.75846803 486.78633566 561.75791811 487.68434468 561.75735153 488.60956608 C561.75464492 493.16997029 561.75223383 497.73037459 561.74993652 502.29077902 C561.73312647 534.60482348 561.67920888 566.91871035 561.60351562 599.23266602 C561.53005859 630.62816529 561.4733807 662.02362147 561.43945312 693.41918945 C561.43840092 694.38668005 561.43734871 695.35417065 561.43626461 696.35097915 C561.42571659 706.06678388 561.41551006 715.78258895 561.40555374 725.49839431 C561.38526321 745.29118343 561.36269319 765.08396974 561.33874512 784.87675476 C561.33709764 786.24186032 561.33709764 786.24186032 561.33541688 787.63454377 C561.2617928 848.42309479 561.13502901 909.21155817 561 970 C556.12980479 969.30413711 553.0904375 968.12037113 548.9375 965.4375 C547.78256724 964.70440321 546.62761891 963.97133094 545.47265625 963.23828125 C544.31483065 962.49261203 543.15727058 961.74653032 542 961 C534.60953481 956.28328273 527.15553151 951.96900906 519.375 947.9375 C513.31080617 944.79514502 507.44977801 941.54248616 501.73828125 937.78515625 C493.58782888 932.47166591 485.25904826 927.51945433 476.49609375 923.2890625 C472.38747513 921.16724067 468.51506332 918.67280235 464.59375 916.2265625 C453.62659155 909.39944557 442.38544327 903.08008817 431.04101562 896.90625 C425.70032792 893.98327784 420.53443238 890.89033985 415.44140625 887.55078125 C411.09662138 884.7909739 406.539681 882.42025162 402 880 C391.63204373 874.39047142 381.08683015 868.66113778 371.4375 861.875 C366.88507628 858.73692152 361.95685191 856.44281234 356.99926758 854.02636719 C352.10268462 851.61605807 347.56103034 848.90318397 343.00390625 845.89453125 C339.27210803 843.54092639 335.43191126 841.42965454 331.5625 839.3125 C320.26291332 833.11274796 309.19116448 826.51549923 298.26953125 819.671875 C293.36955948 816.60427021 288.52335959 813.69695899 283.3125 811.1875 C274.85079954 807.08587893 266.97481369 801.96180254 259 797 C253.8237293 793.78879503 248.66532275 790.79623996 243.1875 788.125 C236.51139791 784.85122465 230.28635481 780.95896391 224 777 C218.0475452 773.28209293 211.97409086 769.92187697 205.75 766.6875 C199.00578248 763.17474755 192.62652958 759.30841145 186.27734375 755.1328125 C179.79361735 750.91336719 173.15131043 746.99791642 166.1875 743.625 C157.97603264 739.61138214 150.2428308 734.65787517 142.5 729.81640625 C135.52065228 725.46022275 135.52065228 725.46022275 128.25 721.625 C118.56330967 716.94757693 109.30196129 711.20352271 100.3125 705.3125 C95.77426926 702.37194685 91.04288203 699.97838136 86.18847656 697.61987305 C81.53934764 695.33534346 77.23563471 692.71991904 72.90625 689.88671875 C64.13999141 684.19572023 55.2103082 679.01507012 45.80859375 674.4453125 C42.07946324 672.52628845 38.62265959 670.27877276 35.11328125 667.98828125 C23.78098792 660.7509697 12.02498753 654.01249377 0 648 C0 434.16 0 220.32 0 0 Z " fill="#613BE4" transform="translate(621,1078)"/>
<path d="M0 0 C4.87149972 1.62383324 8.6605153 3.40257638 12.9375 6.0625 C13.5886377 6.45953125 14.23977539 6.8565625 14.91064453 7.265625 C16.94363465 8.50526504 18.97214746 9.75197713 21 11 C29.49674346 16.2170666 38.03426856 21.21098267 46.92724609 25.73046875 C50.49202741 27.56631809 53.84224948 29.52520143 57.1484375 31.796875 C62.50625101 35.4385587 68.17877814 38.47407875 73.87268066 41.54782104 C84.39580391 47.23550108 94.69055643 53.15546698 104.80297852 59.55249023 C110.64957825 63.22882663 116.60590373 66.52954195 122.74755859 69.68261719 C128.90940677 72.87417612 134.78810124 76.46328134 140.68334961 80.11889648 C145.4869652 83.09296384 150.33953331 85.89996696 155.32421875 88.5625 C163.17946271 92.78254347 170.86136142 97.27401457 178.43505859 101.97680664 C186.26001482 106.83411472 194.19362674 111.28788456 202.37890625 115.5090332 C207.51815447 118.17400613 212.40067749 121.05662913 217.23828125 124.2421875 C220.55148297 126.35101462 223.94558297 128.2754271 227.375 130.1875 C228.03661133 130.55665527 228.69822266 130.92581055 229.37988281 131.30615234 C230.80376704 132.1001262 232.22776291 132.89389986 233.65185547 133.6875 C238.09104496 136.16879369 242.51577642 138.67524578 246.9375 141.1875 C247.80101074 141.67436279 248.66452148 142.16122559 249.55419922 142.6628418 C253.68492688 145.01297368 257.70853477 147.43451992 261.640625 150.10546875 C265.56557149 152.76413686 269.58625203 154.98882564 273.8125 157.125 C285.25989291 163.04619927 296.28742805 169.72444927 307.15625 176.64453125 C310.64028225 178.8295872 314.22426207 180.66382278 317.9375 182.4375 C322.75563863 184.78595979 327.22413301 187.35610713 331.625 190.4140625 C338.85798674 195.24398456 346.62208525 199.30208221 354.33276367 203.31054688 C360.90757155 206.72941734 367.17024317 210.30566135 373.34204102 214.41381836 C378.70422989 217.92552045 384.29595267 220.96312639 389.9375 224 C400.78628868 229.84108813 411.35713723 235.96689467 421.6875 242.6875 C425.24504626 244.97561346 428.82070191 246.96455059 432.625 248.8125 C442.69627183 253.7106218 452.32335596 259.55522868 461.6875 265.6875 C466.22758992 268.62925781 470.9605859 271.02498422 475.81811523 273.38232422 C480.42072989 275.64191506 484.64204164 278.25698347 488.921875 281.06640625 C492.70470939 283.44267912 496.58594113 285.59896283 500.5 287.75 C512.33584533 294.26215183 524.10175442 300.90673297 535.5625 308.0625 C541.6447605 311.85506088 547.88791109 315.32422283 554.17407227 318.76391602 C554.91584717 319.17053467 555.65762207 319.57715332 556.421875 319.99609375 C557.42105957 320.54027954 557.42105957 320.54027954 558.44042969 321.09545898 C560 322 560 322 561 323 C561.09702552 324.42369614 561.12447382 325.85219501 561.1241985 327.27919346 C561.12644579 328.2102951 561.12869308 329.14139674 561.13100848 330.10071358 C561.12706796 331.65619683 561.12706796 331.65619683 561.12304783 333.24310398 C561.12420167 334.33832397 561.12535552 335.43354397 561.12654433 336.56195244 C561.12921965 340.28159653 561.12468135 344.0011985 561.12025452 347.72084045 C561.12069003 350.39457528 561.12152219 353.06830727 561.12284368 355.74204153 C561.12492328 361.58085561 561.12326371 367.41965954 561.11920547 373.25847244 C561.11318766 381.94066793 561.11286806 390.62285698 561.11374746 399.30505417 C561.11506357 413.90760075 561.11171161 428.51014281 561.10573006 443.11268806 C561.09981983 457.57806483 561.09596549 472.04343971 561.09487724 486.50881767 C561.0948085 487.40710165 561.09473976 488.30538562 561.09466894 489.23089032 C561.09433062 493.79253046 561.09402923 498.35417061 561.09374207 502.91581076 C561.09163977 535.25417785 561.08489718 567.59254249 561.07543945 599.9309082 C561.06626006 631.35375963 561.05917398 662.77661039 561.05493164 694.19946289 C561.05473435 695.65148795 561.05473435 695.65148795 561.05453308 697.13284684 C561.05321459 706.85377037 561.05193877 716.5746939 561.05069422 726.29561744 C561.04815777 746.09953906 561.04533652 765.90346064 561.04234314 785.7073822 C561.04220585 786.61800173 561.04206856 787.52862127 561.04192711 788.46683533 C561.03272122 849.31122458 561.01687542 910.15561246 561 971 C556.80366839 969.64512857 553.11133172 968.11297173 549.26171875 965.953125 C548.19373047 965.355 547.12574219 964.756875 546.02539062 964.140625 C544.92388672 963.51671875 543.82238281 962.8928125 542.6875 962.25 C541.59759766 961.6415625 540.50769531 961.033125 539.38476562 960.40625 C533.76284962 957.24202067 528.32096025 953.94665324 522.99145508 950.31347656 C520.09011379 948.3998789 517.09283866 946.8385944 514 945.25 C503.49216001 939.76290192 493.23031927 933.80787062 483.3125 927.3125 C478.77241008 924.37074219 474.0394141 921.97501578 469.18188477 919.61767578 C464.57927011 917.35808494 460.35795836 914.74301653 456.078125 911.93359375 C452.29529061 909.55732088 448.41405887 907.40103717 444.5 905.25 C432.70532663 898.76050122 420.97222585 892.14931671 409.5625 885 C403.30712475 881.10137532 396.85759546 877.59723911 390.38330078 874.07739258 C384.41586853 870.81897252 378.62746347 867.37471627 372.8671875 863.76171875 C369.26324002 861.54730415 365.56876245 859.54072149 361.84375 857.5390625 C353.67915869 853.1203139 345.68424286 848.42730359 337.74755859 843.61450195 C329.88126683 838.84566572 321.96765864 834.31067876 313.79931641 830.08007812 C309.00878625 827.58304413 304.48625844 824.82569078 299.96875 821.859375 C296.24455359 819.52685198 292.41588125 817.42252767 288.5625 815.3125 C277.08985809 809.01831274 265.92824416 802.21950619 254.75390625 795.4140625 C254.09479248 795.01453369 253.43567871 794.61500488 252.7565918 794.20336914 C251.02053179 793.15074057 249.28746935 792.09317246 247.5546875 791.03515625 C244.83162032 789.42625043 242.04290344 788.01298984 239.203125 786.62109375 C233.92236182 784.01463356 228.90236498 781.06148656 223.875 778 C223.03324219 777.49210937 222.19148437 776.98421875 221.32421875 776.4609375 C217.4623946 774.12588104 213.62298652 771.76387773 209.81640625 769.33984375 C206.34191732 767.15958454 202.76612086 765.3315835 199.0625 763.5625 C194.24436137 761.21404021 189.77586699 758.64389287 185.375 755.5859375 C178.14201326 750.75601544 170.37791475 746.69791779 162.66723633 742.68945312 C156.09242845 739.27058266 149.82975683 735.69433865 143.65795898 731.58618164 C138.29577284 728.07448133 132.70406031 725.03684398 127.0625 722 C117.0148613 716.59084783 107.22225228 710.89223047 97.546875 704.84375 C90.5439857 700.47400455 90.5439857 700.47400455 83.25 696.625 C73.60610548 691.9682418 64.3740677 686.26071528 55.4375 680.375 C50.41047288 677.11318851 45.1394379 674.53008366 39.76367188 671.9074707 C35.4052811 669.76099441 31.38138488 667.42545377 27.3984375 664.6328125 C24.18967281 662.44834403 20.88637653 660.44108532 17.5625 658.4375 C16.66712524 657.89138062 16.66712524 657.89138062 15.75366211 657.33422852 C10.60285511 654.24152384 5.42341765 651.71170882 0 649 C0 434.83 0 220.66 0 0 Z " fill="#613BE4" transform="translate(621,360)"/>
</svg>
