<?xml version="1.0" encoding="utf-8"?>
<!-- Generator: Adobe Illustrator 19.0.0, SVG Export Plug-In . SVG Version: 6.00 Build 0)  -->
<svg version="1.1" id="layer" xmlns="http://www.w3.org/2000/svg" xmlns:xlink="http://www.w3.org/1999/xlink" x="0px" y="0px"
	 viewBox="-153 -46 652 652" style="enable-background:new -153 -46 652 652;" xml:space="preserve">
<style type="text/css">
	.st0{fill:#036CB5;}
	.st1{fill:#11A0CB;}
	.st2{fill:url(#XMLID_28_);}
	.st3{fill:url(#XMLID_29_);}
	.st4{fill:url(#XMLID_30_);}
	.st5{fill:url(#XMLID_32_);}
	.st6{fill:url(#XMLID_33_);}
	.st7{fill:url(#XMLID_35_);}
	.st8{fill:#E62E31;}
	.st9{fill:url(#XMLID_37_);}
	.st10{fill:url(#XMLID_38_);}
	.st11{fill:url(#XMLID_39_);}
	.st12{fill:url(#XMLID_40_);}
	.st13{fill:url(#XMLID_41_);}
</style>
<path id="XMLID_7_" class="st0" d="M-119.9,237.2c4-4.1,9.5-6.7,15.7-6.7h16.5H-71c4.3,0,6.5,2.2,6.5,6.6c0,4.3-2.2,6.5-6.5,6.5
	h-16.7h-16.5c-2.4,0-4.4,0.8-6.1,2.5c-1.7,1.6-2.6,3.6-2.8,6v22.5c0,4.9,1.7,9.1,5.2,12.5c3.5,3.5,7.7,5.2,12.6,5.2H-71
	c4.3,0,6.5,2.2,6.5,6.6c0,4.3-2.2,6.5-6.5,6.5h-24.3h-3.8c-7.3,0-16.1-5.8-20.2-11.4c-4.3-5.8-6.9-12.1-6.9-19.4v-22.5
	C-126.1,246.3-124,241.4-119.9,237.2 M-25.9,285.7c0.1,5.4,4.2,11.6,8.2,14.8c4,3.2,8.6,4.8,13.8,4.8h1.1h1.2c4.4,0,6.6-2.2,6.6-6.5
	c0-4.4-2.2-6.6-6.6-6.6h-1.2H-4c-2.4,0-4.4-0.8-6.1-2.5c-1.7-1.6-2.6-3.6-2.8-6v-46.7c0-4.4-2.2-6.6-6.5-6.6c-4.4,0-6.6,2.2-6.6,6.6
	V285.7 M34.8,280.2v18.6c0,4.3,2.2,6.5,6.6,6.5c4.3,0,6.5-2.2,6.5-6.5v-37.4c0-4.9,1.7-9.1,5.2-12.6c3.5-3.5,7.7-5.2,12.6-5.2h12.1
	h12.2c4.3,0,6.5-2.2,6.5-6.5c0-4.4-2.2-6.6-6.5-6.6H77.7H65.6c-8.5,0-15.8,3-21.8,9.1c-6.1,6.1-9.1,13.3-9.1,21.8V280.2z
	 M229.8,305.3h3.3c4.4,0,6.6-2.2,6.6-6.5c0-4.4-2.2-6.6-6.6-6.6h-3.3h-3.2c-4.9,0-9.1-1.7-12.6-5.2c-3.5-3.5-5.2-7.6-5.2-12.5v-34.1
	v-34.1c0-4.4-2.2-6.6-6.5-6.6c-4.4,0-6.6,2.2-6.6,6.6v34.1v34.1c0,8.5,3,15.7,9.1,21.8c6.1,6,13.3,9,21.8,9H229.8z M-26.3,212.5
	c0,3.6,3,6.6,6.6,6.6c3.6,0,6.6-3,6.6-6.6c0-3.6-3-6.6-6.6-6.6C-23.4,205.9-26.3,208.9-26.3,212.5 M135.3,212.5c0,3.6,3,6.6,6.6,6.6
	c3.6,0,6.6-3,6.6-6.6c0-3.6-3-6.6-6.6-6.6C138.2,205.9,135.3,208.9,135.3,212.5 M135,285.7c0.1,5.4,4.2,11.6,8.2,14.8
	c4,3.2,8.6,4.8,13.8,4.8h1.1h1.2c4.4,0,6.6-2.2,6.6-6.5c0-4.4-2.2-6.6-6.6-6.6h-1.2H157c-2.4,0-4.4-0.8-6.1-2.5
	c-1.7-1.6-2.6-3.6-2.8-6v-46.7c0-4.4-2.2-6.6-6.5-6.6c-4.4,0-6.6,2.2-6.6,6.6V285.7"/>
<path id="XMLID_1_" class="st1" d="M67.2,361.1h-6.6l-0.8-4.1c-2.1,2.2-6.2,4.9-11.8,4.9c-9.2,0-13.1-6.4-13.1-21.4
	c0-16.2,4.9-21.1,18.3-21.1c4.8,0,8.7,0.4,12.6,1.4l-0.7,6.6c-4-0.2-8-0.3-11.6-0.3c-6.8,0-9.1,1.8-9.1,13.6
	c0,10.2,1.6,13.4,6.7,13.4c2.9,0,5.3-0.9,7.4-2.1v-14.6h8.7V361.1z M110.7,361.1l-3.6-12.8c-1-4.2-3.7-5.7-5.8-6.2v-0.3
	c5.8-0.7,7.8-4.4,7.8-10.1c0-9.4-4.4-12.1-15.1-12.1c-7.4,0-10.7,0.1-15.6,0.5v40.9h8.9v-16h6.3c2.4,0,3.6,0.8,4.4,3.4l3.1,12.5
	H110.7z M87.3,338.2v-11.5l6.5-0.1c4.8,0,6.2,1.2,6.2,5.8c0,4.5-1.4,5.8-6.2,5.8H87.3z M154.1,340.6c0-16.4-4.6-21.2-17.6-21.2
	c-12.9,0-17.5,4.8-17.5,21.2c0,16.4,4.6,21.2,17.5,21.2C149.5,361.9,154.1,357.1,154.1,340.6 M128.5,340.6c0-10.9,1.8-13.9,8-13.9
	c6.2,0,8,3.1,8,13.9c0,10.9-1.8,13.9-8,13.9C130.4,354.6,128.5,351.5,128.5,340.6 M197.4,320.2h-9.1v24.6c0,7.5-1.8,9.8-7.3,9.8
	c-5.6,0-7.4-2.3-7.4-9.8v-24.6h-9v24.6c0,12.5,4.4,17.1,16.8,17.1c11.7,0,16-4.6,16-17.1V320.2z M239.8,333c0-10.4-3.6-13.4-15-13.4
	c-7.4,0-10.6,0.1-15.5,0.5v40.9h9v-15.2c2.4,0.3,5,0.5,7.7,0.5C236.1,346.4,239.8,343.6,239.8,333 M218.3,339.5v-12.9h6.3
	c4.6,0,6.1,1.3,6.1,6.4c0,5.1-1.4,6.4-6.1,6.5H218.3z"/>
<linearGradient id="XMLID_28_" gradientUnits="userSpaceOnUse" x1="-29.9829" y1="574.5219" x2="-21.7161" y2="574.5219" gradientTransform="matrix(25.9373 0 0 -25.9373 1036.7394 15181.4102)">
	<stop  offset="0" style="stop-color:#02509D"/>
	<stop  offset="0.3448" style="stop-color:#2274A7"/>
	<stop  offset="1" style="stop-color:#66C1BE"/>
</linearGradient>
<rect id="XMLID_15_" x="257.8" y="197.6" class="st2" width="62.8" height="164.6"/>
<linearGradient id="XMLID_29_" gradientUnits="userSpaceOnUse" x1="-29.9747" y1="574.5199" x2="-21.7079" y2="574.5199" gradientTransform="matrix(25.9164 0 0 -25.9164 1035.9497 15169.3262)">
	<stop  offset="0" style="stop-color:#02509D"/>
	<stop  offset="0.3448" style="stop-color:#2274A7"/>
	<stop  offset="1" style="stop-color:#66C1BE"/>
</linearGradient>
<rect id="XMLID_27_" x="323.9" y="197.6" class="st3" width="41.8" height="164.6"/>
<linearGradient id="XMLID_30_" gradientUnits="userSpaceOnUse" x1="-30.0013" y1="574.5248" x2="-21.7345" y2="574.5248" gradientTransform="matrix(25.9684 0 0 -25.9684 1037.889 15199.3438)">
	<stop  offset="0" style="stop-color:#02509D"/>
	<stop  offset="0.3448" style="stop-color:#2274A7"/>
	<stop  offset="1" style="stop-color:#66C1BE"/>
</linearGradient>
<rect id="XMLID_26_" x="369" y="197.6" class="st4" width="29.9" height="164.6"/>
<linearGradient id="XMLID_32_" gradientUnits="userSpaceOnUse" x1="-30.0085" y1="574.5262" x2="-21.7417" y2="574.5262" gradientTransform="matrix(25.9827 0 0 -25.9827 1038.4216 15207.582)">
	<stop  offset="0" style="stop-color:#02509D"/>
	<stop  offset="0.3448" style="stop-color:#2274A7"/>
	<stop  offset="1" style="stop-color:#66C1BE"/>
</linearGradient>
<rect id="XMLID_25_" x="402.1" y="197.6" class="st5" width="17.4" height="164.6"/>
<linearGradient id="XMLID_33_" gradientUnits="userSpaceOnUse" x1="-29.9074" y1="574.5071" x2="-21.6406" y2="574.5071" gradientTransform="matrix(25.7841 0 0 -25.7841 1031.016 15093.0049)">
	<stop  offset="0" style="stop-color:#02509D"/>
	<stop  offset="0.3448" style="stop-color:#2274A7"/>
	<stop  offset="1" style="stop-color:#66C1BE"/>
</linearGradient>
<rect id="XMLID_24_" x="422.8" y="197.6" class="st6" width="5.5" height="164.6"/>
<linearGradient id="XMLID_35_" gradientUnits="userSpaceOnUse" x1="-29.6289" y1="574.5105" x2="-21.3621" y2="574.5105" gradientTransform="matrix(25.8189 0 0 -25.8189 1033.3678 15113.1035)">
	<stop  offset="0" style="stop-color:#02509D"/>
	<stop  offset="0.3448" style="stop-color:#2274A7"/>
	<stop  offset="1" style="stop-color:#66C1BE"/>
</linearGradient>
<rect id="XMLID_23_" x="431.5" y="197.6" class="st7" width="5.5" height="164.6"/>
<rect id="XMLID_22_" x="440.2" y="197.6" class="st8" width="3.1" height="164.6"/>
<linearGradient id="XMLID_37_" gradientUnits="userSpaceOnUse" x1="-29.9234" y1="574.5112" x2="-21.6566" y2="574.5112" gradientTransform="matrix(25.826 0 0 -25.826 1032.5975 15117.1758)">
	<stop  offset="0" style="stop-color:#02509D"/>
	<stop  offset="0.3448" style="stop-color:#2274A7"/>
	<stop  offset="1" style="stop-color:#66C1BE"/>
</linearGradient>
<rect id="XMLID_21_" x="446.3" y="197.6" class="st9" width="3.1" height="164.6"/>
<linearGradient id="XMLID_38_" gradientUnits="userSpaceOnUse" x1="-29.9216" y1="574.5112" x2="-21.6549" y2="574.5112" gradientTransform="matrix(25.826 0 0 -25.826 1032.6039 15117.1758)">
	<stop  offset="0" style="stop-color:#02509D"/>
	<stop  offset="0.3448" style="stop-color:#2274A7"/>
	<stop  offset="1" style="stop-color:#66C1BE"/>
</linearGradient>
<rect id="XMLID_20_" x="452.4" y="197.6" class="st10" width="3.1" height="164.6"/>
<linearGradient id="XMLID_39_" gradientUnits="userSpaceOnUse" x1="-30.4025" y1="574.5916" x2="-22.1357" y2="574.5916" gradientTransform="matrix(26.6874 0 0 -26.6874 1064.5306 15614.2295)">
	<stop  offset="0" style="stop-color:#02509D"/>
	<stop  offset="0.3448" style="stop-color:#2274A7"/>
	<stop  offset="1" style="stop-color:#66C1BE"/>
</linearGradient>
<rect id="XMLID_19_" x="458.5" y="197.6" class="st11" width="3.1" height="164.6"/>
<linearGradient id="XMLID_40_" gradientUnits="userSpaceOnUse" x1="-29.9219" y1="574.5112" x2="-21.6551" y2="574.5112" gradientTransform="matrix(25.826 0 0 -25.826 1032.603 15117.1758)">
	<stop  offset="0" style="stop-color:#02509D"/>
	<stop  offset="0.3448" style="stop-color:#2274A7"/>
	<stop  offset="1" style="stop-color:#66C1BE"/>
</linearGradient>
<rect id="XMLID_18_" x="464.6" y="197.6" class="st12" width="3.1" height="164.6"/>
<linearGradient id="XMLID_41_" gradientUnits="userSpaceOnUse" x1="-29.8832" y1="574.5052" x2="-21.6164" y2="574.5052" gradientTransform="matrix(25.7643 0 0 -25.7643 1030.3286 15081.5996)">
	<stop  offset="0" style="stop-color:#02509D"/>
	<stop  offset="0.3448" style="stop-color:#2274A7"/>
	<stop  offset="1" style="stop-color:#66C1BE"/>
</linearGradient>
<rect id="XMLID_17_" x="470.7" y="197.6" class="st13" width="3.1" height="164.6"/>
</svg>
