<svg xmlns="http://www.w3.org/2000/svg" width="724.932" height="240" viewBox="0 0 724.932 240"><path d="M99.224 162.667c-22.586 0-40.96-18.375-40.96-40.96 0-22.586 18.374-40.961 40.96-40.961s40.96 18.375 40.96 40.961c0 22.585-18.373 40.96-40.96 40.96zm0-79.885c-21.463 0-38.924 17.462-38.924 38.925 0 21.462 17.461 38.924 38.924 38.924s38.924-17.462 38.924-38.924c0-21.463-17.46-38.925-38.924-38.925z" fill="#676d6f"/><path d="M99.224 74.547c-26.005 0-47.16 21.156-47.16 47.16s21.155 47.16 47.16 47.16 47.16-21.156 47.16-47.16-21.156-47.16-47.16-47.16zm0 92.283c-24.882 0-45.124-20.243-45.124-45.123 0-24.882 20.242-45.124 45.124-45.124 24.88 0 45.123 20.242 45.123 45.124 0 24.88-20.242 45.123-45.123 45.123zm3.079-120.78c-38.856 0-70.467 31.612-70.467 70.469 0 38.855 31.611 70.465 70.467 70.465s70.467-31.61 70.467-70.465c0-38.857-31.612-70.468-70.467-70.468zm0 138.898c-37.733 0-68.43-30.698-68.43-68.43s30.697-68.43 68.43-68.43 68.43 30.698 68.43 68.43-30.697 68.43-68.43 68.43z" fill="#ac3800"/><path d="M102.89 192.93c-42.634 0-77.317-34.686-77.317-77.318s34.683-77.316 77.317-77.316 77.317 34.683 77.317 77.316-34.684 77.317-77.317 77.317zm0-152.598c-41.51 0-75.28 33.77-75.28 75.28s33.77 75.28 75.28 75.28 75.28-33.77 75.28-75.28-33.77-75.28-75.28-75.28z" fill="#6b8797"/><path d="M93.495 211.74C41.942 211.74 0 169.796 0 118.244 0 66.692 41.942 24.75 93.495 24.75s93.495 41.942 93.495 93.495c0 51.552-41.942 93.494-93.495 93.494zm0-184.954c-50.43 0-91.458 41.03-91.458 91.459s41.028 91.457 91.458 91.457 91.458-41.026 91.458-91.457-41.027-91.458-91.458-91.458v-.001z" fill="#ecaf00"/><path d="M110.254 240c-51.434 0-93.28-41.845-93.28-93.28s41.846-93.279 93.28-93.279 93.28 41.845 93.28 93.28S161.688 240 110.253 240h.001zm0-184.522c-50.31 0-91.243 40.932-91.243 91.243s40.932 91.242 91.243 91.242 91.243-40.93 91.243-91.242-40.932-91.243-91.243-91.243z" fill="#eda3b6"/><path d="M118.565 214.046c-59.013 0-107.023-48.01-107.023-107.022C11.542 48.01 59.552 0 118.565 0s107.023 48.01 107.023 107.024c0 59.012-48.01 107.022-107.023 107.022zm0-212.01c-57.89 0-104.986 47.098-104.986 104.988 0 57.888 47.097 104.985 104.986 104.985s104.987-47.097 104.987-104.985c0-57.89-47.097-104.987-104.987-104.987z" fill="#e88a00"/><path d="M99.224 182.376c-33.454 0-60.67-27.215-60.67-60.669s27.216-60.67 60.67-60.67c33.453 0 60.67 27.217 60.67 60.67s-27.217 60.67-60.67 60.67zm0-111.156c-27.837 0-50.487 22.65-50.487 50.487s22.649 50.486 50.487 50.486 50.486-22.648 50.486-50.486S127.063 71.22 99.224 71.22z" fill="#ed9e00"/><path d="M118.859 124.341h-5.824v5.193h5.824c1.568 0 3.788-.53 3.788-2.423 0-1.833-2.22-2.77-3.788-2.77zm3.177-5.54c0-.917-.754-2.484-3.177-2.484h-5.824v4.664h5.824c2.403 0 3.177-1.018 3.177-2.18zm6.843-.08c0-5.418-3.93-8.921-10.02-8.921h-12.647c-.366.489-.733.978-1.08 1.467l-1.323 1.323c-.713.733-1.955 1.222-3.075 1.222-3.36 0-4.093-2.2-4.114-4.032 0-1.222.407-2.362 1.14-3.096.693-.692 1.69-1.038 2.974-1.038 1.16 0 2.18.387 2.892 1.08l2.138 2.076 2.118-2.057 2.627-2.525 2.24-2.179-2.22-2.2c-2.647-2.627-6.13-4.052-9.795-4.052-4.053 0-7.556 1.344-10.101 3.91-2.546 2.566-3.992 6.252-3.972 10.122 0 .468.02.957.082 1.425h-1.466v14.663c0 2.526-1.182 2.526-1.894 2.526-1.06 0-2.18-.204-2.18-2.526v-14.663h-9.897v14.663c0 7.23 4.847 12.097 12.056 12.097 7.17 0 11.812-4.745 11.812-12.097v-3.238c.51.204 1.04.367 1.61.49v23.399h19.59v-9.45h-9.856v-.957h12.34c6.661 0 10.632-3.38 10.632-9.022 0-1.507-.55-3.238-1.609-4.684.652-1.1.998-2.362.998-3.727zm-36.76 7.19c0 5.986-3.665 9.04-8.757 9.04-4.867 0-9-2.932-9-9.042v-11.608h3.787v11.608c0 3.646 2.077 5.58 5.234 5.58s4.948-2.118 4.948-5.58v-9.184a12.397 12.397 0 0 0 3.788 4.398v4.787zm21.2 14.254v3.34h-13.48V124.34h3.624v15.824h9.856zm-5.58-21.913c-.238.194-.49.372-.753.53-.244.162-.51.305-.774.447-1.65.897-3.503 1.324-5.478 1.324-2.2 0-4.053-.427-5.56-1.2a6.635 6.635 0 0 1-1.527-.958 6.97 6.97 0 0 1-1.528-1.467 9.029 9.029 0 0 1-1.547-2.627 8.328 8.328 0 0 1-.49-1.527 8 8 0 0 1-.264-1.528 8.63 8.63 0 0 1-.102-1.446c-.04-5.437 3.503-10.956 11.018-10.956 2.83 0 5.52 1.06 7.657 3.177l-2.627 2.525c-1.364-1.344-3.218-1.955-5.03-1.955-5.01 0-7.19 3.747-7.169 7.21 0 .488.041.956.143 1.445.203 1.202.672 2.363 1.466 3.3 1.14 1.384 2.933 2.321 5.56 2.321 1.812 0 3.87-.753 5.234-2.118l.244.244 1.528 1.548.916.917c-.285.285-.59.55-.916.794zm11.12 14.846h-9.592v-20.243h9.592c3.992 0 6.965 1.792 6.965 5.865 0 1.569-.753 3.076-2.627 3.91 2.383.713 3.238 3.24 3.238 4.5 0 4.522-3.38 5.968-7.576 5.968zm452.339-26.043c-4.49-2.553-9.664-3.832-15.535-3.832-9.447 0-16.78 2.77-21.995 8.316-5.214 5.545-7.825 13.313-7.825 23.302 0 6.42 1.206 12.04 3.616 16.855 2.404 4.809 5.848 8.504 10.338 11.074 4.483 2.57 9.663 3.855 15.535 3.855 9.372 0 16.683-2.804 21.937-8.424 5.249-5.614 7.876-13.4 7.876-23.36 0-6.42-1.205-12.011-3.61-16.791-2.41-4.78-5.854-8.448-10.337-10.995zM565.15 148.6c-1.948 3.084-5.152 4.626-9.601 4.626-4.484 0-7.722-1.553-9.71-4.649-1.987-3.101-2.981-7.676-2.981-13.736 0-6.088.988-10.64 2.953-13.644 1.97-3.01 5.18-4.518 9.63-4.518 4.488 0 7.715 1.513 9.68 4.54 1.97 3.027 2.958 7.568 2.958 13.622 0 6.094-.976 10.68-2.93 13.759zm60.56-45.377c-4.158 0-7.87.758-11.133 2.27-3.263 1.515-5.826 3.748-7.685 6.702h-.93l-2.243-7.824h-12.747v61.162h16.686v-28.776c0-7.221 1.04-12.39 3.117-15.508 2.08-3.12 5.453-4.678 10.121-4.678 3.428 0 5.927 1.104 7.495 3.31 1.568 2.207 2.353 5.516 2.353 9.929v35.723h16.684v-39.88c0-7.258-1.842-12.81-5.525-16.658-3.684-3.848-9.08-5.772-16.193-5.772zm-131.55 35.559c-1.167 3.319-1.95 6.857-2.351 10.613h-.328c-.366-4.084-1.04-7.622-2.025-10.613l-11.543-34.41h-18.27l24.29 60.724-.986 3.008c-1.24 3.646-2.964 6.373-5.17 8.177-2.207 1.808-4.786 2.709-7.741 2.709-2.371 0-4.559-.238-6.564-.712v13.24c2.77.62 5.597.93 8.479.93 5.87 0 11.005-1.587 15.4-4.76 4.394-3.173 7.777-7.95 10.148-14.332l25.874-68.984h-17.89l-11.322 34.41zm216.878-53.23l-25.766 20.515 8.206 10.176 9.191-7.386c.584-.47 1.15-.962 1.696-1.477a151.948 151.948 0 0 0 3.172-3.062c.437-.439.746-.767.93-.986a610.483 610.483 0 0 1-.137 3.994l-.164 4.35c-.053 1.384-.09 2.77-.11 4.156-.016 1.14-.025 2.28-.026 3.42v46.28h16.902v-79.98h-13.894zm-388.165 13.37h19.813v65.076h16.14V98.922h19.813v-16.14h-55.766v16.14zm-27.14 36.387c0 7.865-6.432 14.296-14.297 14.296s-14.295-6.43-14.295-14.296V82.781h-15.478v51.449c0 16.375 13.399 29.768 29.773 29.768s29.774-13.393 29.774-29.768V82.781h-15.478v52.528zm133.922-49.756h-16.959v79.98h49.4v-14.006h-32.441V85.553zM218.94 164h16.14V82.782h-16.14v81.219z" fill="#57585a"/></svg>